<?xml version="1.0" encoding="utf-8"?>
<svg viewBox="0 0 500 500" width="500" height="500" xmlns="http://www.w3.org/2000/svg">
  <circle style="fill: rgb(85, 218, 149);" cx="250" cy="250" r="250"/>
  <path d="M 0 250 C 0 111.929 111.929 0 250 0 C 369.688 0 469.731 84.108 494.25 196.443 L 300.624 389.846 L 200.592 290.249 L 68.654 422.087 C 26.106 377.264 0 316.681 0 250 Z" style="fill: rgb(178, 255, 161);"/>
  <path d="M 191.114 130.467 L 217.723 185.377 L 164.504 185.377 L 191.114 130.467 Z" style="fill: rgb(41, 41, 41);" transform="matrix(-1, 0.000057, -0.000057, -1, 391.12207, 407.396851)"/>
  <rect x="100" y="81.861" width="200" height="147.724" style="fill: rgb(41, 41, 41);" rx="7.498" ry="7.498"/>
  <path d="M 185.523 118.251 L 185.523 200.341 L 163.003 200.341 L 163.003 156.881 C 163.003 151.601 163.116 146.771 163.343 142.391 C 161.956 144.078 160.233 145.838 158.173 147.671 L 148.853 155.361 L 137.343 141.211 L 165.533 118.251 L 185.523 118.251 ZM 263.346 159.401 C 263.346 173.928 260.912 184.571 256.046 191.331 C 251.179 198.084 243.729 201.461 233.696 201.461 C 223.889 201.461 216.496 197.934 211.516 190.881 C 206.536 183.821 204.046 173.328 204.046 159.401 C 204.046 144.808 206.479 134.104 211.346 127.291 C 216.212 120.478 223.662 117.071 233.696 117.071 C 243.469 117.071 250.852 120.618 255.846 127.711 C 260.846 134.804 263.346 145.368 263.346 159.401 Z M 226.116 159.401 C 226.116 168.688 226.696 175.071 227.856 178.551 C 229.016 182.038 230.962 183.781 233.696 183.781 C 236.469 183.781 238.426 181.981 239.566 178.381 C 240.706 174.788 241.276 168.461 241.276 159.401 C 241.276 150.308 240.696 143.938 239.536 140.291 C 238.376 136.638 236.429 134.811 233.696 134.811 C 230.962 134.811 229.016 136.571 227.856 140.091 C 226.696 143.611 226.116 150.048 226.116 159.401 Z" transform="matrix(1, 0, 0, 1, 0, 0)" style="fill: rgb(255, 255, 255); white-space: pre;"/>
</svg>