<?xml version="1.0" encoding="utf-8"?>
<svg viewBox="0 0 500 500" width="500" height="500" xmlns="http://www.w3.org/2000/svg">
  <circle style="fill: rgb(227, 106, 87);" cx="250" cy="250" r="250"/>
  <path d="M 5.7 172.087 C 5.7 310.158 117.629 422.087 255.7 422.087 C 375.388 422.087 475.431 337.979 499.95 225.644 L 306.324 32.241 L 206.292 131.838 L 74.354 0 C 31.806 44.823 5.7 105.406 5.7 172.087 Z" style="fill: rgb(222, 222, 222);" transform="matrix(-1, 0, 0, -1, 505.700409, 422.087006)"/>
  <path d="M 191.114 130.467 L 217.723 185.377 L 164.504 185.377 L 191.114 130.467 Z" style="fill: rgb(41, 41, 41);" transform="matrix(-1, 0.000057, -0.000057, -1, 491.12207, 407.396851)"/>
  <rect x="200" y="81.861" width="200" height="147.724" style="fill: rgb(41, 41, 41);" rx="7.498" ry="7.498"/>
  <path d="M 304.775 171.28 L 287.535 171.28 L 287.535 166.45 C 287.535 162.777 288.285 159.677 289.785 157.15 C 291.285 154.623 293.942 152.163 297.755 149.77 C 300.788 147.863 302.972 146.14 304.305 144.6 C 305.632 143.067 306.295 141.307 306.295 139.32 C 306.295 137.753 305.585 136.51 304.165 135.59 C 302.738 134.67 300.885 134.21 298.605 134.21 C 292.952 134.21 286.345 136.213 278.785 140.22 L 270.975 124.95 C 280.295 119.637 290.028 116.98 300.175 116.98 C 308.522 116.98 315.072 118.813 319.825 122.48 C 324.578 126.147 326.955 131.143 326.955 137.47 C 326.955 142.003 325.898 145.927 323.785 149.24 C 321.672 152.553 318.295 155.687 313.655 158.64 C 309.722 161.187 307.258 163.05 306.265 164.23 C 305.272 165.41 304.775 166.803 304.775 168.41 L 304.775 171.28 Z M 285.125 190.93 C 285.125 187.483 286.125 184.827 288.125 182.96 C 290.132 181.087 293.082 180.15 296.975 180.15 C 300.715 180.15 303.588 181.093 305.595 182.98 C 307.595 184.873 308.595 187.523 308.595 190.93 C 308.595 194.337 307.558 196.977 305.485 198.85 C 303.405 200.717 300.568 201.65 296.975 201.65 C 293.268 201.65 290.365 200.723 288.265 198.87 C 286.172 197.017 285.125 194.37 285.125 190.93 Z" transform="matrix(1, 0, 0, 1, 0, 0)" style="fill: rgb(255, 255, 255); white-space: pre;"/>
</svg>